<?xml version="1.0" standalone="no"?>
<!DOCTYPE svg PUBLIC "-//W3C//DTD SVG 20010904//EN"
 "http://www.w3.org/TR/2001/REC-SVG-20010904/DTD/svg10.dtd">
<svg version="1.0" xmlns="http://www.w3.org/2000/svg"
 width="344.000000pt" height="344.000000pt" viewBox="0 0 344.000000 344.000000"
 preserveAspectRatio="xMidYMid meet">

<g transform="translate(0.000000,344.000000) scale(0.100000,-0.100000)"
fill="#000000" stroke="none">
<path d="M760 2973 c-8 -3 -77 -67 -152 -141 -144 -143 -159 -167 -143 -229 4
-19 150 -172 433 -455 l426 -428 -426 -427 c-283 -284 -429 -437 -433 -456
-16 -62 -1 -86 143 -229 143 -143 167 -159 229 -144 19 5 168 147 455 434
l428 427 427 -427 c287 -286 437 -429 456 -433 62 -16 86 0 229 143 144 143
159 167 143 229 -4 19 -150 172 -433 456 l-426 427 426 428 c283 283 429 436
433 455 16 62 1 86 -143 229 -143 143 -167 159 -229 143 -19 -4 -169 -147
-456 -433 l-427 -427 -423 422 c-232 231 -432 426 -444 432 -22 11 -67 13 -93
4z"/>
</g>
</svg>
