<svg height="511pt" viewBox="0 -39 511.99985 511" width="511pt" xmlns="http://www.w3.org/2000/svg"><path d="m408.246094 296.898438c-2.496094-7.210938-8.050782-12.949219-15.179688-15.679688l-69.652344-26.691406 20.617188-86.480469c-8.199219 4.046875-17.351562 6.234375-27.050781 6.027344-32.367188-.695313-57.1875-27.222657-57.128907-58.292969h-246.933593c-7.132813-.003906-12.917969 5.78125-12.917969 12.917969v149.015625c0 9.375 9.671875 15.628906 18.222656 11.78125l202.386719-91.097656-9.484375 39.796874-61.476562 86.648438-79.949219 63.363281c-11.1875 8.871094-13.070313 25.128907-4.203125 36.320313 8.839844 11.152344 25.097656 13.097656 36.320312 4.203125l82.839844-65.65625c1.921875-1.519531 3.613281-3.308594 5.027344-5.304688l22.761718-32.074219-3.558593-58.230468c.199219-1.753906-1.875-8.773438 2.785156-16.039063l44.488281-69.488281-32.066406 74.8125c-1.335938 3.117188-1.921875 6.503906-1.714844 9.890625l7.160156 117.277344c.730469 11.914062 10.960938 21.101562 23.027344 20.375 11.984375-.734375 21.105469-11.042969 20.371094-23.027344l-6.847656-112.128906 30.035156-70.066407-16.632812 67.835938.449218 7.359375 1.1875 19.425781 82.199219 31.5 31.765625 91.734375c4.664062 13.476563 19.375 20.652344 32.886719 15.972657 13.492187-4.671876 20.640625-19.398438 15.96875-32.890626zm0 0"/><path d="m510.34375 13.933594c-4.59375-11.097656-17.308594-16.367188-28.402344-11.777344l-100.359375 41.53125c-3.136719 1.296875-5.921875 3.3125-8.140625 5.878906l-18.242187 21.117188c12.152343 9.992187 20.347656 25.078125 21.238281 41.925781l26.535156-30.71875 95.59375-39.558594c11.09375-4.589843 16.367188-17.304687 11.777344-28.398437zm0 0"/><path d="m318.222656 160.011719c20.003906 0 38.136719-13.667969 42.976563-33.976563 6.617187-27.761718-14.441407-54.488281-43.050781-54.488281-20.003907.003906-38.136719 13.671875-42.980469 33.976563-6.609375 27.738281 14.417969 54.488281 43.054687 54.488281zm0 0"/></svg>