<svg xmlns="http://www.w3.org/2000/svg" width="24" height="24" style="clip-rule:evenodd;fill-rule:evenodd;stroke-linejoin:round;stroke-miterlimit:1;version:1"><path d="M12 0c-6.6 0-12 5.4-12 12 0 6.6 5.4 12 12 12 6.6 0 12-5.4 12-12 0-6.6-5.4-12-12-12Zm3.2 17.9c0.2 0.1 0.4 0.2 0.6 0.1 0.2-0.1 0.4-0.3 0.4-0.5 0.5-2.4 1.7-8.4 2.2-10.6 0-0.2 0-0.3-0.2-0.4 -0.1-0.1-0.3-0.1-0.5-0.1 -2.4 0.9-10 3.7-13.1 4.9 -0.2 0.1-0.3 0.3-0.3 0.5 0 0.2 0.1 0.4 0.3 0.4 1.4 0.4 3.2 1 3.2 1 0 0 0.8 2.6 1.3 3.9 0.1 0.2 0.2 0.3 0.4 0.3 0.2 0 0.3 0 0.5-0.1 0.7-0.7 1.8-1.7 1.8-1.7 0 0 2.1 1.5 3.3 2.4Zm-6.4-5.1l1 3.2 0.2-2c0 0 3.8-3.4 5.9-5.4 0.1-0.1 0.1-0.2 0-0.2 -0.1-0.1-0.1-0.1-0.2 0 -2.5 1.6-6.9 4.4-6.9 4.4Z"/></svg>