<?xml version="1.0" standalone="no"?>
<!DOCTYPE svg PUBLIC "-//W3C//DTD SVG 20010904//EN"
 "http://www.w3.org/TR/2001/REC-SVG-20010904/DTD/svg10.dtd">
<svg version="1.0" xmlns="http://www.w3.org/2000/svg"
 width="300.000000pt" height="300.000000pt" viewBox="0 0 300.000000 300.000000"
 preserveAspectRatio="xMidYMid meet">
<metadata>
Created by potrace 1.16, written by Peter Selinger 2001-2019
</metadata>
<g transform="translate(0.000000,300.000000) scale(0.100000,-0.100000)"
fill="#000000" stroke="none">
<path d="M1075 2973 c-291 -37 -535 -158 -726 -360 -69 -73 -165 -211 -194
-279 -82 -189 -115 -333 -115 -505 0 -189 26 -306 115 -514 51 -121 219 -324
345 -418 127 -94 264 -157 430 -197 80 -20 122 -24 265 -24 146 0 183 3 260
23 121 31 226 73 305 119 l65 39 311 -308 c171 -170 315 -309 320 -309 5 0 77
68 159 151 l150 150 -314 308 -314 307 48 83 c90 156 135 299 154 489 25 244
-45 521 -182 727 -15 22 -38 56 -51 75 -42 62 -220 223 -303 273 -94 56 -214
110 -298 132 -137 37 -316 53 -430 38z m295 -370 c364 -74 634 -406 634 -778
0 -440 -360 -800 -799 -798 -137 0 -232 24 -365 90 -77 39 -111 63 -181 133
-114 113 -168 198 -216 344 -24 72 -27 97 -27 226 -1 113 3 158 17 205 92 302
318 517 610 579 124 27 194 27 327 -1z"/>
<path d="M2685 313 l-150 -153 53 -53 c50 -50 54 -52 105 -51 65 1 119 28 174
87 57 62 77 103 77 164 1 51 -1 54 -54 106 l-55 52 -150 -152z"/>
</g>
</svg>
